# Blender 3.6.22
# www.blender.org
o zleg
v -0.250683 -1.571993 0.225327
v -0.225327 -1.600000 0.225327
v -0.225327 -1.571993 0.250683
v -0.252308 -1.535320 0.252308
v -0.225327 -1.468488 0.289497
v -0.225327 -1.400873 0.300000
v -0.250683 -1.400873 0.289497
v -0.252308 -1.472821 0.275745
v -0.289497 -1.468488 0.225327
v -0.275745 -1.472821 0.252308
v -0.289497 -1.400873 0.250683
v -0.300000 -1.400873 0.225327
v -0.250683 -0.199127 0.289497
v -0.225327 -0.199127 0.300000
v -0.225327 -0.131512 0.289497
v -0.252308 -0.127179 0.275745
v -0.225327 -0.028007 0.250683
v -0.225327 0.000000 0.225327
v -0.250683 -0.028007 0.225327
v -0.252308 -0.064680 0.252308
v -0.289497 -0.199127 0.250683
v -0.275745 -0.127179 0.252308
v -0.289497 -0.131512 0.225327
v -0.300000 -0.199127 0.225327
v -0.225327 -1.571993 -0.250683
v -0.225327 -1.600000 -0.225327
v -0.250683 -1.571993 -0.225327
v -0.252308 -1.535320 -0.252308
v -0.289497 -1.468488 -0.225327
v -0.300000 -1.400873 -0.225327
v -0.289497 -1.400873 -0.250683
v -0.275745 -1.472821 -0.252308
v -0.225327 -1.468488 -0.289497
v -0.252308 -1.472821 -0.275745
v -0.250683 -1.400873 -0.289497
v -0.225327 -1.400873 -0.300000
v -0.250683 -0.028007 -0.225327
v -0.225327 0.000000 -0.225327
v -0.225327 -0.028007 -0.250683
v -0.252308 -0.064680 -0.252308
v -0.225327 -0.131512 -0.289497
v -0.225327 -0.199127 -0.300000
v -0.250683 -0.199127 -0.289497
v -0.252308 -0.127179 -0.275745
v -0.289497 -0.131512 -0.225327
v -0.275745 -0.127179 -0.252308
v -0.289497 -0.199127 -0.250683
v -0.300000 -0.199127 -0.225327
v 0.225327 -1.571993 0.250683
v 0.225327 -1.600000 0.225327
v 0.250683 -1.571993 0.225327
v 0.252308 -1.535320 0.252308
v 0.289497 -1.468488 0.225327
v 0.300000 -1.400873 0.225327
v 0.289497 -1.400873 0.250683
v 0.275745 -1.472821 0.252308
v 0.225327 -1.468488 0.289497
v 0.252308 -1.472821 0.275745
v 0.250683 -1.400873 0.289497
v 0.225327 -1.400873 0.300000
v 0.250683 -0.028007 0.225327
v 0.225327 0.000000 0.225327
v 0.225327 -0.028007 0.250683
v 0.252308 -0.064680 0.252308
v 0.225327 -0.131512 0.289497
v 0.225327 -0.199127 0.300000
v 0.250683 -0.199127 0.289497
v 0.252308 -0.127179 0.275745
v 0.289497 -0.131512 0.225327
v 0.275745 -0.127179 0.252308
v 0.289497 -0.199127 0.250683
v 0.300000 -0.199127 0.225327
v 0.250683 -1.571993 -0.225327
v 0.225327 -1.600000 -0.225327
v 0.225327 -1.571993 -0.250683
v 0.252308 -1.535320 -0.252308
v 0.225327 -1.468488 -0.289497
v 0.225327 -1.400873 -0.300000
v 0.250683 -1.400873 -0.289497
v 0.252308 -1.472821 -0.275745
v 0.289497 -1.468488 -0.225327
v 0.275745 -1.472821 -0.252308
v 0.289497 -1.400873 -0.250683
v 0.300000 -1.400873 -0.225327
v 0.225327 -0.028007 -0.250683
v 0.225327 0.000000 -0.225327
v 0.250683 -0.028007 -0.225327
v 0.252308 -0.064680 -0.252308
v 0.289497 -0.131512 -0.225327
v 0.300000 -0.199127 -0.225327
v 0.289497 -0.199127 -0.250683
v 0.275745 -0.127179 -0.252308
v 0.225327 -0.131512 -0.289497
v 0.252308 -0.127179 -0.275745
v 0.250683 -0.199127 -0.289497
v 0.225327 -0.199127 -0.300000
vn -0.9791 0.0715 0.1906
vn -0.9791 -0.0715 -0.1906
vn -0.9791 -0.0715 0.1906
vn 0.8350 0.4781 0.2723
vn 0.9509 0.2336 -0.2031
vn 0.8350 0.4781 -0.2723
vn -0.2723 -0.4781 -0.8350
vn 0.2031 -0.2336 -0.9509
vn 0.2723 -0.4781 -0.8350
vn -0.5626 0.2110 0.7993
vn -0.6617 0.3525 0.6617
vn -0.7993 0.2110 0.5626
vn -0.6617 0.3525 -0.6617
vn -0.5626 0.2110 -0.7993
vn -0.7993 0.2110 -0.5626
vn 0.4185 -0.8061 -0.4185
vn -0.4185 -0.8061 0.4185
vn -0.4185 -0.8061 -0.4185
vn -0.2723 0.4781 0.8350
vn 0.2031 0.2336 0.9509
vn 0.2723 0.4781 0.8350
vn -0.5467 -0.0669 -0.8347
vn -0.8347 0.0669 -0.5467
vn -0.5467 0.0669 -0.8346
vn 0.2723 0.4781 -0.8350
vn -0.2031 0.2336 -0.9509
vn -0.2723 0.4781 -0.8350
vn 0.8350 -0.4781 -0.2723
vn 0.9509 -0.2336 0.2031
vn 0.8350 -0.4781 0.2723
vn 0.6617 -0.3525 -0.6617
vn 0.5626 -0.2110 -0.7993
vn 0.7993 -0.2110 -0.5626
vn 0.8347 -0.0669 -0.5467
vn 0.5467 0.0669 -0.8347
vn 0.8347 0.0669 -0.5467
vn -0.6617 -0.3525 0.6617
vn -0.5626 -0.2110 0.7993
vn -0.7993 -0.2110 0.5626
vn 0.1906 0.0715 0.9791
vn -0.1906 -0.0715 0.9791
vn 0.1906 -0.0715 0.9791
vn -0.4185 0.8061 -0.4185
vn 0.4185 0.8061 0.4185
vn 0.4185 0.8061 -0.4185
vn -0.1906 0.0715 -0.9791
vn 0.1906 -0.0715 -0.9791
vn -0.1906 -0.0715 -0.9791
vn -0.6617 -0.3525 -0.6617
vn -0.7993 -0.2110 -0.5626
vn -0.5626 -0.2110 -0.7993
vn 0.6617 -0.3525 0.6617
vn 0.7993 -0.2110 0.5626
vn 0.5626 -0.2110 0.7993
vn 0.6617 0.3525 -0.6617
vn 0.7993 0.2110 -0.5626
vn 0.5626 0.2110 -0.7993
vn 0.5467 -0.0669 0.8346
vn 0.8347 0.0669 0.5467
vn 0.5467 0.0669 0.8346
vn 0.6617 0.3525 0.6617
vn 0.5626 0.2110 0.7993
vn 0.7993 0.2110 0.5626
vn 0.9791 0.0715 -0.1906
vn 0.9791 -0.0715 0.1906
vn 0.9791 -0.0715 -0.1906
vn -0.5467 0.0669 0.8346
vn -0.8347 -0.0669 0.5467
vn -0.5467 -0.0669 0.8346
vn -0.8350 0.4781 -0.2723
vn -0.9509 0.2336 0.2031
vn -0.8350 0.4781 0.2723
vn 0.2723 -0.4781 0.8350
vn -0.2031 -0.2336 0.9509
vn -0.2723 -0.4781 0.8350
vn -0.8350 -0.4781 0.2723
vn -0.9509 -0.2336 0.2031
vn -0.2031 0.2336 0.9509
vn -0.8347 0.0669 0.5467
vn -0.8350 -0.4781 -0.2723
vn -0.9509 -0.2336 -0.2031
vn -0.8347 -0.0669 -0.5467
vn -0.2031 -0.2336 -0.9509
vn -0.9509 0.2336 -0.2031
vn -0.9791 0.0715 -0.1906
vn 0.8347 -0.0669 0.5467
vn 0.2031 -0.2336 0.9509
vn 0.9509 0.2336 0.2031
vn 0.9791 0.0715 0.1906
vn 0.5467 -0.0669 -0.8346
vn 0.9509 -0.2336 -0.2031
vn 0.2031 0.2336 -0.9509
vn 0.1906 0.0715 -0.9791
vn -0.1906 0.0715 0.9791
vn -0.4185 0.8061 0.4185
vn 0.4185 -0.8061 0.4185
vt 0.047440 0.311847
vt 0.311847 0.047440
vt 0.311847 0.311847
vt 0.009790 0.406727
vt 0.032563 0.671134
vt 0.009790 0.671134
vt 0.658360 0.311847
vt 0.628490 0.047440
vt 0.658360 0.047440
vt 0.406405 0.390897
vt 0.388368 0.390897
vt 0.401022 0.377146
vt 0.952882 0.327677
vt 0.970918 0.327677
vt 0.958265 0.341428
vt 0.990210 0.671134
vt 0.746898 0.406727
vt 0.990210 0.406727
vt 0.380570 0.406727
vt 0.410440 0.671134
vt 0.380570 0.671134
vt 0.311847 0.009790
vt 0.047440 0.032563
vt 0.047440 0.009790
vt 0.948847 0.047440
vt 0.978716 0.311847
vt 0.948847 0.311847
vt 0.349497 0.671134
vt 0.326724 0.406727
vt 0.349497 0.406727
vt 0.650562 0.031610
vt 0.632526 0.031610
vt 0.637908 0.017859
vt 0.311847 0.686011
vt 0.047440 0.708784
vt 0.047440 0.686011
vt 0.726761 0.390897
vt 0.708725 0.390897
vt 0.721379 0.377146
vt 0.426542 0.671134
vt 0.669853 0.406727
vt 0.669853 0.671134
vt 0.932745 0.311847
vt 0.689433 0.047440
vt 0.932745 0.047440
vt 0.369077 0.311847
vt 0.612388 0.047440
vt 0.612388 0.311847
vt 0.650562 0.327677
vt 0.637908 0.341428
vt 0.632526 0.327677
vt 0.726761 0.686964
vt 0.721379 0.700715
vt 0.708725 0.686964
vt 0.952882 0.031610
vt 0.958265 0.017859
vt 0.970918 0.031610
vt 0.311847 0.369077
vt 0.047440 0.391850
vt 0.047440 0.369077
vt 0.388368 0.686964
vt 0.406405 0.686964
vt 0.401022 0.700715
vt 0.047440 0.671134
vt 0.311847 0.406727
vt 0.311847 0.671134
vt 0.047440 0.349497
vt 0.311847 0.326724
vt 0.311847 0.349497
vt 0.009790 0.047440
vt 0.032563 0.311847
vt 0.009790 0.311847
vt 0.730797 0.671134
vt 0.700927 0.406727
vt 0.730797 0.406727
vt 0.744486 0.391850
vt 0.695104 0.391850
vt 0.326724 0.311847
vt 0.424130 0.391850
vt 0.410440 0.406727
vt 0.374747 0.391850
vt 0.047440 0.326724
vt 0.664183 0.326724
vt 0.326724 0.047440
vt 0.311847 0.032563
vt 0.327677 0.031610
vt 0.628490 0.311847
vt 0.614800 0.326724
vt 0.935157 0.326724
vt 0.984539 0.326724
vt 0.032563 0.047440
vt 0.047440 0.047440
vt 0.744486 0.686011
vt 0.311847 0.391850
vt 0.327677 0.390897
vt 0.700927 0.671134
vt 0.695104 0.686011
vt 0.689434 0.671134
vt 0.374747 0.686011
vt 0.424130 0.686011
vt 0.032563 0.406727
vt 0.047440 0.406727
vt 0.664183 0.032563
vt 0.614800 0.032563
vt 0.326724 0.671134
vt 0.935157 0.032563
vt 0.031610 0.686964
vt 0.978716 0.047440
vt 0.984539 0.032563
vt 0.990210 0.047440
vt 0.735573 0.369077
vt 0.327677 0.341428
vt 0.415216 0.369077
vt 0.017859 0.327677
vt 0.341428 0.031610
vt 0.349497 0.047440
vt 0.623714 0.349497
vt 0.944071 0.349497
vt 0.031610 0.017859
vt 0.735573 0.708784
vt 0.017859 0.390897
vt 0.031610 0.390897
vt 0.415216 0.708784
vt 0.341428 0.686964
vt 0.327677 0.686964
vt 0.623714 0.009790
vt 0.944071 0.009790
vt 0.987798 0.391850
vt 0.426542 0.406727
vt 0.667441 0.391850
vt 0.691845 0.326724
vt 0.689433 0.311847
vt 0.371489 0.326724
vt 0.669853 0.311847
vt 0.669853 0.047440
vt 0.990210 0.311847
vt 0.369077 0.047440
vt 0.746898 0.671134
vt 0.689434 0.406727
vt 0.369077 0.406727
vt 0.369077 0.671134
vt 0.349497 0.311847
vt 0.311847 0.708784
vt 0.327677 0.327677
vt 0.031610 0.327677
vt 0.031610 0.031610
vt 0.327677 0.377146
vt 0.031610 0.700715
vt 0.371489 0.032563
vt 0.987798 0.686011
vt 0.691845 0.032563
vt 0.667441 0.686011
s 1
f 24/1/1 30/2/2 12/3/3
f 61/4/4 89/5/5 87/6/6
f 25/7/7 77/8/8 75/9/9
f 16/10/10 20/11/11 22/12/12
f 40/13/13 44/14/14 46/15/15
f 74/16/16 2/17/17 26/18/18
f 17/19/19 65/20/20 63/21/21
f 35/22/22 47/23/23 43/24/24
f 85/25/25 41/26/26 39/27/27
f 73/28/28 53/29/29 51/30/30
f 76/31/31 80/32/32 82/33/33
f 83/34/34 95/35/35 91/36/36
f 4/37/37 8/38/38 10/39/39
f 66/40/40 6/41/41 60/42/42
f 38/43/43 62/44/44 86/45/45
f 42/46/46 78/47/47 36/48/48
f 28/49/49 32/50/50 34/51/51
f 52/52/52 56/53/53 58/54/54
f 88/55/55 92/56/56 94/57/57
f 59/58/58 71/59/59 67/60/60
f 64/61/61 68/62/62 70/63/63
f 90/64/64 54/65/65 84/66/66
f 13/67/67 11/68/68 7/69/69
f 37/70/70 23/71/71 19/72/72
f 49/73/73 5/74/74 3/75/75
f 1/76/76 3/75/75 4/37/37
f 5/74/74 7/77/69 8/38/38
f 9/78/77 11/68/68 12/3/3
f 13/79/67 15/80/78 16/10/10
f 17/19/19 19/81/72 20/11/11
f 21/82/79 23/71/71 24/1/1
f 25/7/7 27/83/80 28/49/49
f 29/84/81 31/85/82 32/86/50
f 33/87/83 35/88/22 36/48/48
f 37/89/70 39/27/27 40/13/13
f 41/26/26 43/90/24 44/14/14
f 45/91/84 47/23/23 48/92/85
f 49/73/73 51/93/30 52/52/52
f 53/29/29 55/94/86 56/95/53
f 57/96/87 59/97/58 60/98/42
f 61/99/4 63/21/21 64/61/61
f 65/20/20 67/100/60 68/62/62
f 69/101/88 71/59/59 72/102/89
f 73/103/28 75/9/9 76/31/31
f 77/8/8 79/104/90 80/32/32
f 81/105/91 83/34/34 84/66/66
f 85/25/25 87/106/6 88/55/55
f 89/5/5 91/36/36 92/107/56
f 93/108/92 95/109/35 96/110/93
f 9/111/77 4/37/37 10/39/39
f 5/74/74 4/37/37 3/75/75
f 11/68/68 8/112/38 7/69/69
f 13/79/67 22/12/12 21/113/79
f 15/80/78 20/11/11 16/10/10
f 23/71/71 20/114/11 19/72/72
f 33/87/83 28/49/49 34/51/51
f 29/84/81 28/115/49 27/116/80
f 35/88/22 32/50/50 31/117/82
f 45/118/84 40/13/13 46/15/15
f 41/26/26 40/13/13 39/27/27
f 47/23/23 44/119/14 43/24/24
f 57/96/87 52/52/52 58/54/54
f 53/120/29 52/52/52 51/93/30
f 59/58/58 56/95/53 55/94/86
f 69/101/88 64/121/61 70/122/63
f 65/20/20 64/61/61 63/21/21
f 71/123/59 68/62/62 67/100/60
f 81/105/91 76/124/31 82/125/33
f 77/8/8 76/31/31 75/9/9
f 83/126/34 80/32/32 79/104/90
f 93/108/92 88/55/55 94/57/57
f 89/127/5 88/55/55 87/106/6
f 95/35/35 92/107/56 91/36/36
f 2/17/17 27/128/80 26/18/18
f 30/2/2 9/78/77 12/3/3
f 14/129/94 7/130/69 6/41/41
f 12/3/3 21/82/79 24/1/1
f 38/43/43 19/131/72 18/132/95
f 24/1/1 45/91/84 48/92/85
f 36/48/48 43/133/24 42/46/46
f 48/92/85 31/85/82 30/2/2
f 26/134/18 75/9/9 74/135/16
f 78/47/47 33/87/83 36/48/48
f 86/45/45 39/27/27 38/43/43
f 42/136/46 93/108/92 96/110/93
f 84/66/66 91/36/36 90/64/64
f 96/137/93 79/104/90 78/47/47
f 74/16/16 51/93/30 50/138/96
f 54/65/65 81/105/91 84/66/66
f 62/44/44 87/106/6 86/45/45
f 90/64/64 69/101/88 72/102/89
f 60/42/42 67/100/60 66/40/40
f 72/102/89 55/94/86 54/65/65
f 50/138/96 3/75/75 2/17/17
f 6/139/41 57/96/87 60/98/42
f 18/140/95 63/21/21 62/141/44
f 66/40/40 15/80/78 14/129/94
f 1/142/76 29/84/81 27/116/80
f 24/1/1 48/92/85 30/2/2
f 61/4/4 69/101/88 89/5/5
f 25/7/7 33/87/83 77/8/8
f 74/16/16 50/138/96 2/17/17
f 17/19/19 15/80/78 65/20/20
f 35/22/22 31/85/82 47/23/23
f 85/25/25 93/108/92 41/26/26
f 73/28/28 81/105/91 53/29/29
f 83/34/34 79/143/90 95/35/35
f 66/40/40 14/129/94 6/41/41
f 38/43/43 18/132/95 62/44/44
f 42/46/46 96/137/93 78/47/47
f 59/58/58 55/94/86 71/59/59
f 90/64/64 72/102/89 54/65/65
f 13/67/67 21/82/79 11/68/68
f 37/70/70 45/91/84 23/71/71
f 49/73/73 57/96/87 5/74/74
f 1/76/76 2/17/17 3/75/75
f 5/74/74 6/139/41 7/77/69
f 9/78/77 10/144/39 11/68/68
f 13/79/67 14/129/94 15/80/78
f 17/19/19 18/140/95 19/81/72
f 21/82/79 22/145/12 23/71/71
f 25/7/7 26/134/18 27/83/80
f 29/84/81 30/2/2 31/85/82
f 33/87/83 34/51/51 35/88/22
f 37/89/70 38/43/43 39/27/27
f 41/26/26 42/136/46 43/90/24
f 45/91/84 46/146/15 47/23/23
f 49/73/73 50/138/96 51/93/30
f 53/29/29 54/65/65 55/94/86
f 57/96/87 58/54/54 59/97/58
f 61/99/4 62/141/44 63/21/21
f 65/20/20 66/40/40 67/100/60
f 69/101/88 70/122/63 71/59/59
f 73/103/28 74/135/16 75/9/9
f 77/8/8 78/47/47 79/104/90
f 81/105/91 82/125/33 83/34/34
f 85/25/25 86/45/45 87/106/6
f 89/5/5 90/64/64 91/36/36
f 93/108/92 94/57/57 95/109/35
f 9/111/77 1/76/76 4/37/37
f 5/74/74 8/38/38 4/37/37
f 11/68/68 10/144/39 8/112/38
f 13/79/67 16/10/10 22/12/12
f 15/80/78 17/19/19 20/11/11
f 23/71/71 22/145/12 20/114/11
f 33/87/83 25/7/7 28/49/49
f 29/84/81 32/86/50 28/115/49
f 35/88/22 34/51/51 32/50/50
f 45/118/84 37/89/70 40/13/13
f 41/26/26 44/14/14 40/13/13
f 47/23/23 46/146/15 44/119/14
f 57/96/87 49/73/73 52/52/52
f 53/120/29 56/53/53 52/52/52
f 59/58/58 58/147/54 56/95/53
f 69/101/88 61/4/4 64/121/61
f 65/20/20 68/62/62 64/61/61
f 71/123/59 70/63/63 68/62/62
f 81/105/91 73/28/28 76/124/31
f 77/8/8 80/32/32 76/31/31
f 83/126/34 82/33/33 80/32/32
f 93/108/92 85/25/25 88/55/55
f 89/127/5 92/56/56 88/55/55
f 95/35/35 94/148/57 92/107/56
f 2/17/17 1/76/76 27/128/80
f 30/2/2 29/84/81 9/78/77
f 14/129/94 13/79/67 7/130/69
f 12/3/3 11/68/68 21/82/79
f 38/43/43 37/89/70 19/131/72
f 24/1/1 23/71/71 45/91/84
f 36/48/48 35/88/22 43/133/24
f 48/92/85 47/23/23 31/85/82
f 26/134/18 25/7/7 75/9/9
f 78/47/47 77/8/8 33/87/83
f 86/45/45 85/25/25 39/27/27
f 42/136/46 41/26/26 93/108/92
f 84/66/66 83/34/34 91/36/36
f 96/137/93 95/149/35 79/104/90
f 74/16/16 73/150/28 51/93/30
f 54/65/65 53/29/29 81/105/91
f 62/44/44 61/151/4 87/106/6
f 90/64/64 89/5/5 69/101/88
f 60/42/42 59/152/58 67/100/60
f 72/102/89 71/59/59 55/94/86
f 50/138/96 49/73/73 3/75/75
f 6/139/41 5/74/74 57/96/87
f 18/140/95 17/19/19 63/21/21
f 66/40/40 65/20/20 15/80/78
f 1/142/76 9/78/77 29/84/81
